<svg xmlns="http://www.w3.org/2000/svg" width="392.771" height="689.192" viewBox="0 0 392.771 689.192">
  <g id="g500" transform="translate(0 0)">
    <path id="path502" d="M120.148,136.378c1.748,11.019,2.959,26.876,3.5,30.773s4.828,12.9,4.828,12.9,1.486-3.628,2.964-7.66a130.512,130.512,0,0,0,4.974-17.871c1.748-8.2.669-18.008,2.283-29.563s1.882-16.663,1.882-16.663a95.345,95.345,0,0,1-10.077,4.972c-7.257,3.226-13.036,3.494-13.979,4.031s1.883,8.063,3.629,19.082m4.432,245.507c.539.4,5.375-.267,22.306-6.182s28.087-12.631,43.539-18.543,22.979-5.375,23.785-6.449-5.643-2.554-10.077-4.839-19.8-7.548-28.219-11.288-7.662-4.7-9.945-4.971-6.99,2.149-9.542,1.746-4.568,3.494-7.391,7.928-7.658,13.84-12.228,22.173-12.766,20.022-12.23,20.425M268.612-25.63a10.53,10.53,0,0,0,2.061-3.579,10.949,10.949,0,0,1-2.3,1.856,8.04,8.04,0,0,1-2.294.956c.2.549.437,1.151.681,1.791a3.39,3.39,0,0,0,1.851-1.025m-.04-23.776a10.5,10.5,0,0,0-1.594-2.232c-.233-.2-.463-.414-.7-.622a5.316,5.316,0,0,1-.087,1.4,11.9,11.9,0,0,1,1.1,1.5c.275.454.531.9.781,1.334a15.026,15.026,0,0,1,1.721,2.288c-.072-.414-.17-.839-.235-1.272a12.3,12.3,0,0,0-.985-2.391M257.648-61.281a27.015,27.015,0,0,0-6.59-.786c-1.251-.025-2.464.027-3.622.087.716.291,1.424.584,2.115.877.9-.137,1.817-.266,2.755-.351a20.083,20.083,0,0,1,4.573.136,10.589,10.589,0,0,1,4.318,1.7c.343.228.667.472.981.719a9.3,9.3,0,0,0-4.53-2.386m-12.2-1.791a15.606,15.606,0,0,0-5.348-2.386c-.258-.069-.535-.121-.8-.183a15.644,15.644,0,0,1,1.562.548,14.284,14.284,0,0,1,3.308,1.871c.387.13.768.268,1.151.41.11-.013.231-.031.347-.047-.078-.07-.136-.146-.219-.213m-30.164-1.3c2.232-.322,4.53-.591,6.849-.781a16.488,16.488,0,0,0-2.471-.078,13.691,13.691,0,0,0-4.378.859M201.467-61.8A6.709,6.709,0,0,0,197.8-58.2a11.178,11.178,0,0,0-1.043,2.576,13.09,13.09,0,0,0-.336,1.327q-.068.651-.132,1.283c.112-.163.217-.327.333-.49a17.572,17.572,0,0,1,1.048-1.746c.137-.2.307-.4.457-.6a12.932,12.932,0,0,1,.736-2.265,10.6,10.6,0,0,1,2.646-3.7.315.315,0,0,1-.038.013m-9.833,16.692a4.152,4.152,0,0,0-1.271,1.712,2.922,2.922,0,0,0-.08.477,11.619,11.619,0,0,0,1.773-2.008c.1-.269.211-.555.331-.844a8.779,8.779,0,0,0-.754.663m-.367,2.561a11.472,11.472,0,0,1-1.036.5,6.1,6.1,0,0,0,.049.645c.076.4.157.8.24,1.191.224-.707.475-1.5.746-2.337m-.121,48.067a10.237,10.237,0,0,1-.5-1.238,7.088,7.088,0,0,1-.493-.884c-.016-.036-.034-.076-.051-.114.016.089.02.183.043.269a4.379,4.379,0,0,0,1,1.967m3.884,3.474a1.428,1.428,0,0,0-.128-.081c.092.1.174.192.264.287a1.07,1.07,0,0,0-.136-.206M268-30.313a6.577,6.577,0,0,1-2.38,1.5,4.413,4.413,0,0,0,.116,1.265,11.359,11.359,0,0,0,1.524-1.276,9.551,9.551,0,0,0,2.484-4.013c.029-.116.042-.233.06-.351a8.346,8.346,0,0,1-1.8,2.87m-9.71-26.57c.45.051.911.107,1.377.174.369.054.75.121,1.132.192-.345-.231-.689-.468-1.061-.669a8.8,8.8,0,0,0-3.319-1.056c-.246-.031-.511-.025-.763-.043.918.465,1.8.931,2.633,1.4m10.474,21.435c-1.607,2.675-2.84,4.441-3.114,6.149a8.4,8.4,0,0,0,1.672-1.61,8.185,8.185,0,0,0,1.448-3.732,4.8,4.8,0,0,0-.005-.806m-4.414-17.329a7.945,7.945,0,0,0-.94-1.4,12.521,12.521,0,0,0-1.771-.638,27.548,27.548,0,0,1,2.744,2.113c-.013-.025-.018-.049-.033-.074M307,170.343c1.057-.4,5.442-3.931,5.141-4.436s-5.039,1.714-6.249,2.672.051,2.167,1.108,1.764m7.458,14.259c3.022-1.611,3.678-2.518,3.528-2.872s-2.908.992-4.506,1.714c-2.082.942-4.716,2.469-4.515,2.773s2.469,0,5.493-1.614m-.555-9.574c.253.251,2.418-1.309,2.218-1.612s-2.469,1.361-2.218,1.612M-66.6,574.381c2.923-2.42,7.423-2.753,7.423-2.753s1.009-2.353,3.761-7.393,7.393-8.465,7.324-10.95-.268-5.576,1.479-5.78,4.1,3.832,4.1,3.832a109.014,109.014,0,0,0,7.725-9.744c3.7-5.307,19.888-30.572,26.071-40.918s8.6-28.891,21.634-44.613S37.236,430.4,43.553,423s12.4-19.047,12.4-19.047a58.05,58.05,0,0,1-1.446-8.5c-.2-3.492.071-7.053,1.412-7.859a6.066,6.066,0,0,1,3.358-.539A78.578,78.578,0,0,0,62.6,366.265c.3-11.792,4.334-21.972,6.852-29.027a83.79,83.79,0,0,1,4.737-11.085s-5.744-2.216-9.473-3.729-2.317-5.645-.4-10.682,2.621-11.389,7.154-18.243,7.156-10.077,7.156-11.691.1-6.751,1.916-10.883,2.216-20.763,5.24-28.119,3.83-11.288,9.173-18.241,11.689-13.706,13-14.111,4.535-.8,4.333-1.31-4.434-7.055-9.272-15.217S93,180.454,86.286,164.463s-10.48-37.088-12.361-41.925-6.718-10.079-4.436-15.32S74.326,102.65,79.7,96.469s18.006-22.576,31.04-30.37,20.694-10.885,25.8-15.452,17.336-22.039,26.608-26.2,12.933-6.686,19.785-7.291,11.893-.806,12.4-2.317a11.233,11.233,0,0,0,.253-3.881,8.6,8.6,0,0,0-.71-.732,33.313,33.313,0,0,0-3.2-2.326,6.994,6.994,0,0,1-3.1-3.967,9.436,9.436,0,0,1,.146-3.975,19.406,19.406,0,0,1-.676-2.267,22.519,22.519,0,0,1-.591-4.1,5.336,5.336,0,0,1-.531-4.665,12.594,12.594,0,0,1,.616-1.524c-1-4.7-1.048-16.336.233-19.626.837-2.155,1.43-3.9,2.151-6.124a21.287,21.287,0,0,1-1.412-2.52A5.667,5.667,0,0,1,188-43.88,6,6,0,0,1,189.525-47a14.623,14.623,0,0,1,2.352-2.317c.862-.687,1.768-1.3,2.671-1.892l.38-.219a12.346,12.346,0,0,1-.045-1.6q.049-.729.1-1.48a14.977,14.977,0,0,1,.318-1.493,12.722,12.722,0,0,1,1.063-2.926,8.783,8.783,0,0,1,1.914-2.57,8.54,8.54,0,0,1,2.672-1.6,9.7,9.7,0,0,1,3.637-.577c.175-.063.342-.139.528-.193a13.729,13.729,0,0,1,4.835-.531c.6.036,1.186.121,1.773.2a10.074,10.074,0,0,1,2.939-1.657,15.246,15.246,0,0,1,4.994-.766,15.407,15.407,0,0,1,4.289.792,6.189,6.189,0,0,1,.651.264c.1-.013.192-.034.286-.049l2.55-.336a26.961,26.961,0,0,1,5.813-1.661,18.212,18.212,0,0,1,7.244.815,14.746,14.746,0,0,1,5.554,3.044,5.863,5.863,0,0,1,.647.752,28.727,28.727,0,0,1,4.372-.463,28.674,28.674,0,0,1,6.991.625,10.09,10.09,0,0,1,6.006,3.995,9.9,9.9,0,0,1,1.265,3.08c.081.318.137.624.2.933.033.02.069.033.1.052a15.606,15.606,0,0,1,2.456,2.124,12.072,12.072,0,0,1,1.737,2.619,10.235,10.235,0,0,1,.893,2.789,14.51,14.51,0,0,1,.069,2.585c-.031.324-.056.627-.085.927a8.189,8.189,0,0,1,.338,1.573,6.509,6.509,0,0,1-.116,2.431c.118.179.242.345.356.53a12.313,12.313,0,0,1,1.4,3.385,6.781,6.781,0,0,1-.193,3.7,5.821,5.821,0,0,1-.127,2.032,10.2,10.2,0,0,1-3.1,5.09,3.735,3.735,0,0,1-2.276.958c.949,2.514,1.867,5.428.916,7.526-1.41,3.125-4.132,6.046-2.216,9.676s6.147,7.658,6.147,10.48-7.96,2.319-8.164,5.242.707,4.434,0,5.544a4.043,4.043,0,0,1-2.417,1.41s2.216,1.815,1.007,4.031-3.427,1.413-3.729,4.737-.6,9.272-6.55,10.281-11.387-1.31-13,.3.049,6.55-1.892,8.869-9.195,3.828-8.591,10.482,5.647,19.552,7.057,25.4,7.761,26.606,8.568,34.971-.3,19.349-4.839,26.3-8.869,9.473-9.876,15.017-1.513,10.986-3.628,16.428-3.628,10.079-2.925,10.885,11.693,4.233,17.941,3.83,24.188-2.823,27.009-6.249,7.458-15.622,9.271-19.451,5.746-7.46,6.552-9.576,5.845-6.55,7.055-8.868,4.381-2.218,4.1,1.813.027,4.839-2.391,8.466-6.449,8.466-5.444,9.977,4.436,1.815,8.367.707,13-5.444,16.226-6.249,5.542-.5,6.25.7-.607,4.535-.607,4.535,3.729-1.412,4.839.605a5.488,5.488,0,0,1,0,4.434,3.462,3.462,0,0,1,2.72,4.434,15.672,15.672,0,0,1-3.427,6.652s3.123,1.914,0,6.048-8.163,5.24-10.984,6.953-11.49,7.861-18.041,9.07-12.092-.2-15.42,1.31-8.869,4.436-21.567,6.35-21.871,5.845-32.553,5.544-21.366-2.722-22.071-2.017-2.014,8.869-5.947,16.528-7.758,15.017-8.568,16.329-2.015,5.744-1.41,6.249,1.645,2.015,3.391,2.688,2.959-.136,5.645.94,3.225,6.451,11.825,8.333,16.931,9.135,24.591,14.644,26.6,19.89,37.625,35.611,21.5,32.79,24.324,39.91,1.614,13.439,2.418,18.681-.537,12.631-7.255,16.123-18.545,9.273-24.324,10.08-19.216-1.479-23.516,0-21.632,6.046-40.177,6.718-42.735.806-55.633,4.031-20.593,7.928-20.593,7.928,1.009,2.621-.907,4.132-4.434,3.326-4.132,3.427,3.225-.2,2.317,1.209-2.418,4.938-3.326,4.938-3.022-1.31-3.225,0-.606,5.544-1.914,6.854.3,3.022-1.714,5.037-.5,3.629-1.714,5.141-.3,2.52-1.007,5.141-2.017,2.418-2.017,6.046-.2,9.878,3.125,15.521,6.35,11.111,5.442,15.432-3.024,7.16-8.061,5.085-14.514-10.337-19.855-17.291A89.043,89.043,0,0,1,75.4,459.187c-1.11-2.923-1.817-6.149-2.218-6.35s-5.643,3.427-9.07,9.574-18.681,24.631-28.356,36.351-22.306,22.606-30.37,36.045-8.8,18.308-9.1,20.022a21.979,21.979,0,0,0,0,4.636s1.815-1.513,2.72.5-.1,8.062.6,8.667a9.921,9.921,0,0,1,3.832,5.645c.808,3.425,2.72,6.65,3.226,8.967s2.014,4.537,1.813,6.151.1,4.233.707,5.037,2.319,5.341,5.945,8.264,13.607.806,18.644,1.41,8.669,1.916,7.255,7.156S37.2,617.92,23.9,619.935s-22.979,2.117-29.126,0-19.25-11.689-27.816-15.924-20.058-10.279-27.311-15.42-9.173-11.792-6.25-14.211" transform="translate(67.914 67.706)" fill="#905858"/>
  </g>
</svg>
