<svg xmlns="http://www.w3.org/2000/svg" width="370.133" height="170.228" viewBox="0 0 370.133 170.228">
  <defs>
    <style>
      .cls-1 {
        fill: #c7c7c7;
      }

      .cls-1, .cls-2, .cls-3, .cls-4, .cls-5, .cls-7 {
        stroke: #707070;
      }

      .cls-2 {
        fill: #fff;
      }

      .cls-3 {
        fill: #ddd;
      }

      .cls-4 {
        fill: #f2f2f2;
      }

      .cls-5 {
        fill: #193d9a;
      }

      .cls-6 {
        fill: none;
        stroke: #193d9a;
        stroke-linecap: round;
      }

      .cls-7 {
        fill: #707070;
      }
    </style>
  </defs>
  <g id="shoe" transform="translate(-390.491 -343.252)">
    <path id="bottom" class="cls-1" d="M396.823,448.338c-10.168,7.452-5.45,22.879,2.453,30.472s52.9,22.725,62.14,25.149,63.332,10.722,106.272,8.695,57.355-3.3,115.389-2.156,75.452-14.286,76.673-19.063-.856-12.655-6.049-22.187c-.831-1.525-4.906-11.058-4.906-11.058l-101.073,3.459s-26.6,4.294-57.231,9.528-42.694,10.573-65.3,11.406-53.989,1.381-67.312-1.866-28.483-2.912-40.775-8-14.816-4.379-19.4-8.856S396.823,448.338,396.823,448.338Z"/>
    <path id="text-space" class="cls-2" d="M754.049,469.573c2.016,1.613-93.05,3.056-97.211,2.858s-9.389-9.464-8.57-10.23,100.563-4.22,100.563-4.22S752.033,467.959,754.049,469.573Z"/>
    <path id="top-space" class="cls-2" d="M535.986,433.868s2.154,19.71-3.9,16.124-17.753-10.126-28.019-7.969S474.24,446.355,468.057,446s-42.589-3.8-42.589-3.8,42.045-4.54,54.836-8.333,28.379-10.792,35.739-15.1,42.072-30.467,52.67-36.152,58.615-45.843,61.667-36.441S626,369.081,627.42,376.847s-2,9.768-2,9.768-22.1-9.16-31.939-4-44.331,20.793-66.336,32.9-2.546,18.35-2.546,18.35Z" transform="translate(0 -1)"/>
    <path id="middle-space" class="cls-2" d="M542.2,405.4s-3.691,17.373,22.124,19.865,52.121,10.942,57.782,21.367a67.382,67.382,0,0,0,14.59,17.738l-46.216,6.83s-.033-10,3.662-11.955,8.179-5.3,7.608-8.35-7.872-5.924-10.714-6.446-21.893-5.08-21.893-5.08-10.87-3.672-19.211-4.759-22.5-.955-27.346-2.042-10.28-8.367-6.662-11.04S542.2,405.4,542.2,405.4Z"/>
    <path id="bottom-space" class="cls-3" d="M739,412.762s-89.536,37.066-90.566,40.443-1.822,7.844,1.164,8.463,99.524-3.856,99.524-3.856a78.456,78.456,0,0,1-.708-11.067c-.044-7.031.149-7.047-.392-10.344S739,412.762,739,412.762Z"/>
    <path id="back-space" class="cls-4" d="M729.8,377.063c-1.346.3-12.234,5.462-21.509,13.391s-18.744,13.7-26.594,15.2-22.759-.727-26.137-2.524S628.9,392.6,624.814,391.375s-30.094-8.772-43.829-5.354-38.97,19.359-38.97,19.359-3.3,17.481,22.314,20.164,48.732,11.254,53.184,15.624,10.072,14.393,11.6,15.812,7.131,7.49,7.131,7.49l11.958-2.378s-1.281-4.44,0-8.126,90.96-41.348,90.96-41.348-4.244-9.9-5.25-16.023S731.141,376.767,729.8,377.063Z"/>
    <path id="logo" class="cls-5" d="M634.514,412.706c-.229-1.978-15.921,15.562-10.56,28.655,3.782,8.617,15.316,8.7,38.4-2.3,59.959-28.581,59.195-27.876,58.725-29.707s-59.859,17.957-75.223,20.429S634.742,414.685,634.514,412.706Z"/>
    <path id="front-space" class="cls-5" d="M425.613,441.141s-24.856,2.975-28.373,6.906-10.369,19.174,19.191,25.895,98.64,15.893,134.779,7,39.824-9.707,39.824-9.707-.333-10.427,4.708-12.067,11.553-10.719-1.882-14.242-36.593-9.478-42.524-10.1-15.756-1.2-15.756-1.2,3.491,21.236-5.488,14.209-19.785-8.176-26.446-6.771-35.91,5.16-42.71,3.319S425.613,441.141,425.613,441.141Z"/>
    <path id="top-border" class="cls-2" d="M580.9,386.084s14.312-7.265,22.4-6.01,21.244,4.549,23.752,6.01S653.143,397.39,657.2,397.8s15.161,4.415,23.792,1.6,14.444-8.595,19.79-12.594,14.989-11.171,14.989-11.171,13.213-8.32,14.084-3.017S727,378.189,727,378.189l-10.376,5.816s-15.064,12.032-19.308,14.636-20.077,12.664-40.116,5.213S611.325,384.958,580.9,386.084Z"/>
    <g id="nike-text" transform="translate(4)">
      <path id="Path_12" data-name="Path 12" class="cls-6" d="M658.134,470.178s-.656-4.4,1.68-4.323,1.67,4.323,1.67,4.323" transform="translate(1 -1)"/>
      <path id="Path_13" data-name="Path 13" class="cls-6" d="M663.447,470.178v-4.071" transform="translate(1 -1)"/>
      <path id="Path_14" data-name="Path 14" class="cls-6" d="M665.121,464.471v5.666" transform="translate(1 -1)"/>
      <path id="Path_15" data-name="Path 15" class="cls-6" d="M667.685,465.855l-2.226,2.006,2.56,2.334" transform="translate(1 -1)"/>
      <path id="Path_16" data-name="Path 16" class="cls-6" d="M668.963,467.095s3.677.538,3.385-.8-3.078-1.329-3.385,0-.208,3.442,3.385,2.793" transform="translate(1 -0.209)"/>
    </g>
    <path id="back-lace" class="cls-7" d="M729.985,375.37s-4.054-14.655,2.368-15.255,9.376,4.81,7.4,17.889-.879,33.244-.879,33.244-.924-14.567-.831-19.272.831-20.8.831-20.8.288-10.748-5.787-9.632S729.985,375.37,729.985,375.37Z"/>
  </g>
</svg>
