<svg xmlns="http://www.w3.org/2000/svg" viewBox="0 0 80.43 56.552">
  <path id="awesome-youtube" data-name="Icon awesome-youtube" d="M79.8,13.349a10.106,10.106,0,0,0-7.111-7.157C66.416,4.5,41.265,4.5,41.265,4.5S16.114,4.5,9.842,6.192a10.106,10.106,0,0,0-7.111,7.157C1.05,19.662,1.05,32.833,1.05,32.833s0,13.172,1.681,19.485a9.956,9.956,0,0,0,7.111,7.043c6.272,1.692,31.424,1.692,31.424,1.692s25.151,0,31.424-1.692A9.956,9.956,0,0,0,79.8,52.318c1.681-6.313,1.681-19.485,1.681-19.485s0-13.172-1.681-19.485ZM33.039,44.792V20.874L54.061,32.834,33.039,44.792Z" transform="translate(-1.05 -4.5)" fill="#fff"/>
</svg>
