<svg xmlns="http://www.w3.org/2000/svg" viewBox="0 0 67.054 55.343">
  <path id="awesome-twitter" data-name="Icon awesome-twitter" d="M60.162,17.173c.043.605.043,1.211.043,1.816,0,18.462-13.828,39.734-39.1,39.734A38.387,38.387,0,0,1,0,52.454a27.98,27.98,0,0,0,3.319.173A27.245,27.245,0,0,0,20.38,46.661,13.8,13.8,0,0,1,7.531,36.976a17.06,17.06,0,0,0,2.6.216,14.316,14.316,0,0,0,3.616-.476A13.913,13.913,0,0,1,2.723,23.01v-.173A13.674,13.674,0,0,0,8.935,24.61,14.136,14.136,0,0,1,4.68,5.932,38.861,38.861,0,0,0,33.016,20.546a16.011,16.011,0,0,1-.34-3.2A13.849,13.849,0,0,1,46.419,3.381,13.609,13.609,0,0,1,56.46,7.791a26.8,26.8,0,0,0,8.722-3.372,13.889,13.889,0,0,1-6.042,7.7,27.2,27.2,0,0,0,7.914-2.162,29.807,29.807,0,0,1-6.892,7.22Z" transform="translate(0 -3.381)" fill="#fff"/>
</svg>
